<?xml version="1.0" standalone="no"?>
<!DOCTYPE svg PUBLIC "-//W3C//DTD SVG 20010904//EN"
 "http://www.w3.org/TR/2001/REC-SVG-20010904/DTD/svg10.dtd">
<svg version="1.0" xmlns="http://www.w3.org/2000/svg"
 width="400.000000pt" height="400.000000pt" viewBox="0 0 400.000000 400.000000"
 preserveAspectRatio="xMidYMid meet">

<g transform="translate(0.000000,400.000000) scale(0.100000,-0.100000)"
fill="#000000" stroke="none">
<path d="M0 2000 l0 -2000 2000 0 2000 0 0 2000 0 2000 -2000 0 -2000 0 0
-2000z m1514 1086 c184 -52 272 -138 316 -310 25 -100 28 -365 5 -464 -27
-115 -94 -217 -169 -257 -20 -11 -36 -22 -36 -25 0 -3 22 -17 49 -32 96 -54
167 -163 195 -301 22 -105 22 -409 0 -514 -39 -191 -154 -316 -339 -368 -50
-15 -121 -18 -412 -22 l-353 -5 0 1162 0 1162 343 -5 c279 -3 353 -7 401 -21z
m1350 0 c96 -27 143 -52 201 -107 61 -57 97 -124 120 -221 20 -86 20 -360 0
-446 -27 -114 -80 -197 -162 -253 l-44 -30 58 -38 c90 -58 139 -127 178 -251
26 -81 33 -445 11 -550 -33 -159 -122 -281 -244 -338 -113 -52 -134 -54 -509
-59 l-353 -5 0 1162 0 1162 343 -5 c279 -3 353 -7 401 -21z"/>
<path d="M1130 2475 l0 -305 108 0 c141 0 184 19 225 99 26 52 27 62 27 196 0
267 -40 315 -262 315 l-98 0 0 -305z"/>
<path d="M1130 1475 l0 -355 113 0 c173 1 223 19 262 96 18 35 20 59 20 239 0
166 -3 209 -18 251 -34 99 -86 124 -257 124 l-120 0 0 -355z"/>
<path d="M2480 2475 l0 -305 108 0 c134 0 183 20 222 90 22 40 25 59 28 181 5
170 -8 241 -52 285 -42 42 -89 54 -208 54 l-98 0 0 -305z"/>
<path d="M2480 1474 l0 -356 138 4 c165 4 193 15 232 93 24 48 25 57 25 245 0
220 -12 279 -66 324 -43 36 -89 46 -216 46 l-113 0 0 -356z"/>
</g>
</svg>
